<svg xmlns="http://www.w3.org/2000/svg" viewBox="0 0 337.54 59.33"><defs><style>.cls-1{fill:#ccc;}.cls-2{fill:#2c3033;}</style></defs><title>LogoSevereTRIP</title><g id="Layer_1" data-name="Layer 1"><path class="cls-1" d="M371.76,210.19H362v-8.48h28.82v8.48h-9.75v50.86h-9.33Z" transform="translate(-135.85 -201.71)"/><path class="cls-1" d="M395.33,201.71h13.81c9.67,0,13.82,4.5,13.82,13.65V219c0,6.11-1.95,10-6.1,11.7v.17c4.66,1.44,6.18,5.85,6.18,12.55v10.42c0,2.88.09,5,1,7.21h-9.49c-.51-1.53-.85-2.46-.85-7.29V242.91c0-5.51-1.61-7.29-5.85-7.29h-3.22v25.43h-9.32ZM408,227.14c3.48,0,5.6-1.52,5.6-6.27v-4.58c0-4.24-1.44-6.1-4.75-6.1h-4.24v16.95Z" transform="translate(-135.85 -201.71)"/><path class="cls-1" d="M429.49,201.71h9.32v59.34h-9.32Z" transform="translate(-135.85 -201.71)"/><path class="cls-1" d="M445.76,201.71h13.73c9.33,0,13.9,5.17,13.9,14.67v5.85c0,9.49-4.57,14.66-13.9,14.66h-4.41v24.16h-9.32Zm13.73,26.7c3,0,4.58-1.35,4.58-5.59v-7c0-4.23-1.61-5.59-4.58-5.59h-4.41v18.22Z" transform="translate(-135.85 -201.71)"/><path class="cls-2" d="M160.07,225.25a64,64,0,0,1,6.56,2.15,20.84,20.84,0,0,1,5.18,2.89,12.21,12.21,0,0,1,3.41,4.08,12,12,0,0,1,1.22,5.62v.23a14.73,14.73,0,0,1-1.44,6.52,15.16,15.16,0,0,1-4,5.07,18.46,18.46,0,0,1-6,3.26,23.81,23.81,0,0,1-7.52,1.15,28,28,0,0,1-7.22-.92,28.71,28.71,0,0,1-6.26-2.43,24.17,24.17,0,0,1-4.93-3.42,15.2,15.2,0,0,1-3.22-4l8.67-5.49a31.85,31.85,0,0,0,2.81,2.78,16.76,16.76,0,0,0,3,2.08,13.31,13.31,0,0,0,3.4,1.29,17.34,17.34,0,0,0,4.08.45,14,14,0,0,0,2.85-.3,9.26,9.26,0,0,0,2.63-1,6.14,6.14,0,0,0,1.92-1.67,4,4,0,0,0,.75-2.49,4.23,4.23,0,0,0-.52-2,5.88,5.88,0,0,0-1.78-1.89,15.44,15.44,0,0,0-3.41-1.79,45.93,45.93,0,0,0-5.41-1.67,58.67,58.67,0,0,1-7.18-2.18,21,21,0,0,1-5.41-3,11.85,11.85,0,0,1-3.41-4.19,13.18,13.18,0,0,1-1.18-5.79,15.24,15.24,0,0,1,1.37-6.57,13.82,13.82,0,0,1,3.81-4.93,17.53,17.53,0,0,1,5.75-3.08,22.52,22.52,0,0,1,7.07-1.08,26.5,26.5,0,0,1,7.11.89,27.32,27.32,0,0,1,5.7,2.26,21.81,21.81,0,0,1,4.41,3.11,28.08,28.08,0,0,1,3.15,3.37l-8.52,5.48a21.32,21.32,0,0,0-6-4.26,15,15,0,0,0-6-1.22,10.08,10.08,0,0,0-3.3.48,7.68,7.68,0,0,0-2.25,1.19,5.1,5.1,0,0,0-1.37,1.59,3.49,3.49,0,0,0-.49,1.7,4.25,4.25,0,0,0,.78,2.56,7.23,7.23,0,0,0,2.3,2,18.84,18.84,0,0,0,3.78,1.63C156.43,224.27,158.15,224.76,160.07,225.25Z" transform="translate(-135.85 -201.71)"/><path class="cls-2" d="M198.15,217.92a18.35,18.35,0,0,1,7.4,1.52,19.36,19.36,0,0,1,10.19,10.18,19.23,19.23,0,0,1,1.07,11.63l-.07.15H197.92l-4.74-7.55h14.08a10.94,10.94,0,0,0-3.45-5.11,8.54,8.54,0,0,0-5.66-2,9,9,0,0,0-3.78.81,9.68,9.68,0,0,0-5.11,5.42,11,11,0,0,0-.74,4.1,10.15,10.15,0,0,0,.66,3.5,10.8,10.8,0,0,0,1.93,3.29,11,11,0,0,0,3,2.47,8,8,0,0,0,4,1,11.52,11.52,0,0,0,3.66-.56,6.82,6.82,0,0,0,3.15-2.48l.08-.07.14.07,8.6,3.78-.15.15a18.44,18.44,0,0,1-6.78,5.83,18.85,18.85,0,0,1-8.7,2.09,19.11,19.11,0,0,1-7.52-1.48,18.9,18.9,0,0,1-6.11-4.07,19.54,19.54,0,0,1-4.11-6.08,18.19,18.19,0,0,1-1.52-7.4,18.44,18.44,0,0,1,1.52-7.49,19.28,19.28,0,0,1,10.22-10.18A18.79,18.79,0,0,1,198.15,217.92Z" transform="translate(-135.85 -201.71)"/><path class="cls-2" d="M225.85,218.59l9.56,26.81-6.52,6.74-13.63-33.63h10.59Zm20.3-.08h10.52l-15.19,37h-8.59l3-8.52Z" transform="translate(-135.85 -201.71)"/><path class="cls-2" d="M273,217.92a18.35,18.35,0,0,1,7.4,1.52,19.36,19.36,0,0,1,10.19,10.18,19.23,19.23,0,0,1,1.07,11.63l-.07.15H272.81l-4.74-7.55h14.08a10.94,10.94,0,0,0-3.45-5.11,8.54,8.54,0,0,0-5.66-2,9,9,0,0,0-3.78.81,9.68,9.68,0,0,0-5.11,5.42,11,11,0,0,0-.74,4.1,10.15,10.15,0,0,0,.66,3.5,10.8,10.8,0,0,0,1.93,3.29,11,11,0,0,0,3,2.47,8,8,0,0,0,4,1,11.52,11.52,0,0,0,3.66-.56,6.82,6.82,0,0,0,3.15-2.48l.08-.07.14.07,8.6,3.78-.15.15a18.44,18.44,0,0,1-6.78,5.83,18.85,18.85,0,0,1-8.7,2.09,19.11,19.11,0,0,1-7.52-1.48,18.79,18.79,0,0,1-6.11-4.07,19.54,19.54,0,0,1-4.11-6.08,18.19,18.19,0,0,1-1.52-7.4,18.44,18.44,0,0,1,1.52-7.49,19.5,19.5,0,0,1,4.11-6.07,19.22,19.22,0,0,1,6.11-4.11A18.79,18.79,0,0,1,273,217.92Z" transform="translate(-135.85 -201.71)"/><path class="cls-2" d="M325.78,220l-.89,1.49-3.78,6.74-.07-.08a10.46,10.46,0,0,0-5.26-1.4,10.34,10.34,0,0,0-3.63.63,9.91,9.91,0,0,0-3,1.77,11,11,0,0,0-2.26,2.71,9.41,9.41,0,0,0-1.22,3.33v20.37H295.56v-37h10.07v4.82q3.93-5.42,11.48-5.41A19,19,0,0,1,325.7,220Z" transform="translate(-135.85 -201.71)"/><path class="cls-2" d="M341.7,217.92a18.37,18.37,0,0,1,7.41,1.52,19.39,19.39,0,0,1,10.18,10.18,18.44,18.44,0,0,1,1.52,7.49,18.76,18.76,0,0,1-.44,4.14l-.08.15H341.48l-4.74-7.55h14.07a11,11,0,0,0-3.44-5.11,8.56,8.56,0,0,0-5.67-2,9,9,0,0,0-3.77.81,9.73,9.73,0,0,0-3.08,2.18,10,10,0,0,0-2,3.24,11.19,11.19,0,0,0-.74,4.1,10.17,10.17,0,0,0,.67,3.5,10.6,10.6,0,0,0,1.93,3.29,11.09,11.09,0,0,0,3,2.47,8,8,0,0,0,4,1,11.53,11.53,0,0,0,3.67-.56,6.82,6.82,0,0,0,3.15-2.48l.07-.07.15.07,8.59,3.78-.15.15a18.33,18.33,0,0,1-6.77,5.83,18.89,18.89,0,0,1-8.71,2.09,19.2,19.2,0,0,1-13.63-5.55,19.54,19.54,0,0,1-4.11-6.08,18.35,18.35,0,0,1-1.52-7.4,18.61,18.61,0,0,1,1.52-7.49,19.28,19.28,0,0,1,10.22-10.18A18.86,18.86,0,0,1,341.7,217.92Z" transform="translate(-135.85 -201.71)"/></g></svg>